<?xml version="1.0" encoding="utf-8"?>
<!-- Generator: Adobe Illustrator 18.0.0, SVG Export Plug-In . SVG Version: 6.00 Build 0)  -->
<!DOCTYPE svg PUBLIC "-//W3C//DTD SVG 1.1//EN" "http://www.w3.org/Graphics/SVG/1.1/DTD/svg11.dtd">
<svg version="1.1"
	 id="svg2" inkscape:version="0.48.4 r9939" sodipodi:docname="inkscape en cours - i love paris.svg" xmlns:rdf="http://www.w3.org/1999/02/22-rdf-syntax-ns#" xmlns:inkscape="http://www.inkscape.org/namespaces/inkscape" xmlns:dc="http://purl.org/dc/elements/1.1/" xmlns:sodipodi="http://sodipodi.sourceforge.net/DTD/sodipodi-0.dtd" xmlns:ns1="http://sozi.baierouge.fr" xmlns:cc="http://creativecommons.org/ns#" xmlns:osb="http://www.openswatchbook.org/uri/2009/osb"
	 xmlns="http://www.w3.org/2000/svg" xmlns:xlink="http://www.w3.org/1999/xlink" x="0px" y="0px"
	 viewBox="1376.4 95.7 1052.9 1599.6" enable-background="new 1376.4 95.7 1052.9 1599.6" xml:space="preserve">
<sodipodi:namedview  inkscape:window-height="876" inkscape:object-nodes="true" fit-margin-right="0" inkscape:object-paths="true" inkscape:current-layer="svg2" fit-margin-bottom="0" inkscape:window-y="24" inkscape:pageshadow="2" inkscape:window-x="49" inkscape:snap-object-midpoints="true" inkscape:window-maximized="1" inkscape:window-width="1551" inkscape:snap-global="false" inkscape:pageopacity="0" inkscape:guide-bbox="true" id="namedview4" fit-margin-left="0" showgrid="false" inkscape:zoom="0.34060441" gridtolerance="10" borderopacity="1" fit-margin-top="0" pagecolor="#ffffff" guidetolerance="10" bordercolor="#666666" showguides="true" inkscape:cy="462.18816" objecttolerance="10" inkscape:cx="71.109737">
	</sodipodi:namedview>
<g id="g5067" transform="matrix(1.2155 0 0 1.2155 237.97 401.31)">
	<path id="path5069" inkscape:connector-curvature="0" sodipodi:nodetypes="ccccccc" fill="#563217" d="M1147.2,758.9l9.4,9.4
		l-182.6,285l27.6,10.3h-65l211.2-296.8L1147.2,758.9z"/>
	<path id="path5071" inkscape:connector-curvature="0" fill="#563217" d="M1150.2,745.7l-6.9-19.2l379.5-63l131.9,83.2l-130.9-100.4
		l-391.3,64l1,15.3L1150.2,745.7z"/>
	<path id="path5073" inkscape:connector-curvature="0" sodipodi:nodetypes="cccc" fill="#563217" d="M1262.9,671.8l32-4.4
		c14.4-63.3,24.5-126.7,35.4-190C1312.4,546,1292,612.5,1262.9,671.8L1262.9,671.8z"/>
	<path id="path5075" inkscape:connector-curvature="0" sodipodi:nodetypes="cccc" fill="#563217" d="M1409.6,644.2l27.6-2
		c-27.7-57.8-32.5-127-42.8-193.4C1397.7,512.5,1397.7,573.6,1409.6,644.2L1409.6,644.2z"/>
	<path id="path5077" inkscape:connector-curvature="0" sodipodi:nodetypes="cccccc" fill="#563217" d="M1454.9,436.5l68.4,57.6
		c-2.4,54.1,30.7,112.1,60.5,169.8l-42.8-42.3l-36.9,2.5C1480.9,561.6,1467.2,499.1,1454.9,436.5L1454.9,436.5z"/>
	<path id="path5079" inkscape:connector-curvature="0" fill="#563217" d="M1407.2,442.5l-90.6,25.1"/>
	<path id="path5081" inkscape:connector-curvature="0" sodipodi:nodetypes="cccc" fill="#563217" d="M1293.4,459.2
		c-19.8,76.8-40,153.4-68.9,228.4l-35.9,7.4C1234.1,618.5,1266.5,539.4,1293.4,459.2L1293.4,459.2z"/>
	<path id="path5083" inkscape:connector-curvature="0" sodipodi:nodetypes="cccccccc" fill="#563217" d="M1278.6,454.2l-5.1-12.4
		l178.4-45.6l79.5,68.3l-79.3-86.6l-187.4,54.9l1,12.4L1278.6,454.2z"/>
	<path id="path5085" inkscape:connector-curvature="0" sodipodi:nodetypes="cccc" fill="#563217" d="M1231.9,745
		c-13.2,46.8-68.6,91.2-90.5,136.4c22.5-18.6,30.8-27.6,50.1-34.8C1196.5,813,1228.8,781.3,1231.9,745L1231.9,745z"/>
	<path id="path5087" inkscape:connector-curvature="0" sodipodi:nodetypes="ccccc" fill="#563217" d="M1227.1,793.1l66.1-4.9
		l-70.3,41.1l40.4-31.3L1227.1,793.1z"/>
	<path id="path5089" inkscape:connector-curvature="0" sodipodi:nodetypes="cccc" fill="#563217" d="M1443.6,731.1
		c15.4,49.4,44.4,91.2,71,134.3c-13-9.8-24.3-21.4-39.7-25.1C1454.3,807.6,1459.2,796.9,1443.6,731.1L1443.6,731.1z"/>
	<path id="path5091" inkscape:connector-curvature="0" sodipodi:nodetypes="ccccc" fill="#563217" d="M1433.1,769.4l-80.7,16
		l78.7,25.1l-47.3-26.5L1433.1,769.4z"/>
	<path id="path5093" inkscape:connector-curvature="0" sodipodi:nodetypes="ccsccscccccssccscc" fill="#563217" d="M1543.8,698.4
		l105.8,70.3c7.6,50.1,62.7,103.9,95.8,159.5l57.4,96.6l-50.9,0c17.5-5.9,27.5-10.7,12.5-34.8c-50.6-81.7-84.4-134.8-111.4-144.1
		l40.4,52.9v5.6l-11.8-2.1l1.4-5.6l-32.7-43.9c-13.4-17.9-32.2-4.9-17.4,23l100.2,188.6l-81.4-0.7c35.4-19.3,41.5-21.1,20.2-67.5
		C1618.4,880.1,1544.1,793.2,1543.8,698.4L1543.8,698.4z"/>
	<path id="path5095" inkscape:connector-curvature="0" sodipodi:nodetypes="ccsccsc" fill="#563217" d="M1047.4,1062.4l31.3-0.7
		c11.9-144.1,133.5-235.7,247.7-236.8c114.3-1.1,213.1,91.3,247.2,236.1h29.9c-85.5-246.4-220.6-244.9-300.7-241.5
		C1206.9,823.6,1070.1,935,1047.4,1062.4L1047.4,1062.4z"/>
	<path id="path5097" inkscape:connector-curvature="0" sodipodi:nodetypes="ccccc" fill="#563217" d="M1142.1,937.1
		c45.2-55.3,154.4-105.1,124.6,68.2c8.7,6.9,26.8,12,43.2,17.4l-71.7,1.4C1279.5,864.9,1219,886.6,1142.1,937.1L1142.1,937.1z"/>
	<path id="path5099" inkscape:connector-curvature="0" sodipodi:nodetypes="cccc" fill="#563217" d="M1348.2,1023.4l25.1-0.7
		c-9.8-57.8,24.7-131.7,118-133.4C1425.1,873.4,1364,905.7,1348.2,1023.4L1348.2,1023.4z"/>
	<path id="path5101" inkscape:connector-curvature="0" fill="#563217" d="M1341.9,395.6l9.7-2.8l20.2-244.3l21.6,231.8l12.5-2.1
		l-34.1-353.6L1341.9,395.6z"/>
	<path id="path5103" inkscape:connector-curvature="0" sodipodi:nodetypes="ccccc" fill="#563217" d="M1297.4,408.1l21.6-6.3
		c17.1-156.3,26.9-315.5,34.8-475.5l-4.2,0.7C1341.2,89.4,1327,250.4,1297.4,408.1L1297.4,408.1z"/>
	<path id="path5105" inkscape:connector-curvature="0" fill="#563217" d="M1346.1-70.9l1.5-4.4l49.5-14.5l27.1,25.6l-25.6-37.2
		l-55.1,22.4l-0.7,3L1346.1-70.9z"/>
	<path id="path5107" inkscape:connector-curvature="0" sodipodi:nodetypes="cccccccc" fill="#563217" d="M1338.1-97.8l-2.5-15.7
		l71-21.6l23.4,52.4l-21.7-63.9l-77.5,29.5l-0.9,2.9L1338.1-97.8z"/>
	<path id="path5109" inkscape:connector-curvature="0" sodipodi:nodetypes="cccccscccccsc" fill="#563217" d="M1339.5-130.7
		l-4.5-17.8c13.8-5.4,26.8-12.3,37.6-23.7l33.1,0.7l0.3,21.2c0,0,1.6-12.9,3.5-19.1c0.8-2.5,3.1-7.3,3.1-7.3l-33.8-4.9l-5.9-70
		l-4.6,71.7c-10.8,12.3-26.2,22.2-42.5,31.7c0,0,4.9,4.4,7,7C1335.4-137.9,1339.4-130.7,1339.5-130.7L1339.5-130.7z"/>
	<path id="path5111" inkscape:connector-curvature="0" sodipodi:nodetypes="cccccc" fill="#563217" d="M1401.1-77.8l21.6,20.9
		c5.6,130.8,30.8,283,56.4,435.8l-16.7-19.5l-25.8,9C1413.8,231.9,1409.9,74.3,1401.1-77.8L1401.1-77.8z"/>
	<path id="path5113" inkscape:connector-curvature="0" fill="#563217" d="M1366.8-77.4l9-2.8l-1.4,55.7l-7,7L1366.8-77.4z"/>
</g>
</svg>
